<svg id="icon" xmlns="http://www.w3.org/2000/svg" width="28" height="28" viewBox="0 0 28 28" fill="none">
  <path fill-rule="evenodd" clip-rule="evenodd" d="M21.8051 9.28377H23.0476L23.0388 9.27502C24.4826 9.27502 25.6638 10.4563 25.6638 11.9V20.755C25.6638 22.1988 24.4826 23.38 23.0388 23.38H9.45882C8.01507 23.38 6.83382 22.1988 6.83382 20.755V19.7575L5.99382 19.88C5.91507 19.8975 5.82757 19.8975 5.74882 19.8975C4.71632 19.8975 3.79757 18.935 3.59632 17.5875L2.24882 8.54877C2.03882 7.11377 3.02757 5.77502 4.46257 5.56502L18.2876 3.50877C18.9876 3.40377 19.6788 3.57877 20.2388 3.99877C20.7988 4.41877 21.1663 5.03127 21.2713 5.72252L21.8051 9.28377ZM23.9226 17.3688V11.9088C23.9226 11.4275 23.5288 11.0338 23.0476 11.0338H9.46757C8.98632 11.0338 8.59257 11.4275 8.59257 11.9088V16.7475C9.73882 15.7938 11.3313 14.8925 12.7576 15.54C13.6326 15.9338 14.2801 16.6338 14.8488 17.255C15.8551 18.3488 16.2838 18.6988 17.1151 18.375C17.9113 18.0688 18.5063 17.7713 19.0313 17.5C20.0551 16.975 20.8688 16.5638 22.1113 16.6775C22.7938 16.73 23.4063 17.0188 23.9226 17.3688ZM5.33757 17.3338C5.40757 17.85 5.67882 18.13 5.77507 18.1563V18.165L6.84257 17.9988V11.9175C6.84257 10.4738 8.02382 9.29252 9.46757 9.29252H20.0376L19.5476 5.98502C19.5126 5.74877 19.3901 5.54752 19.1976 5.40752C19.0138 5.26752 18.7776 5.20627 18.5501 5.24127L4.72507 7.29752C4.25257 7.36752 3.92007 7.81377 3.99007 8.29502L5.33757 17.3338ZM9.46757 21.6388H23.0476C23.5288 21.6388 23.9226 21.245 23.9226 20.7638V19.7313C23.5376 19.2588 22.7413 18.4888 21.9538 18.4188C21.2363 18.3575 20.7901 18.5675 19.8276 19.0575L19.7795 19.0819C19.254 19.3491 18.6028 19.6802 17.7538 20.0113C15.7326 20.79 14.4726 19.4338 13.5626 18.445C13.0638 17.8938 12.5913 17.3863 12.0401 17.1325C11.2088 16.7563 9.58132 18.0688 8.59257 19.1888V20.7638C8.59257 21.245 8.98632 21.6388 9.46757 21.6388ZM19.7838 13.9999C19.7838 14.6474 19.2588 15.1724 18.6113 15.1724C17.9638 15.1724 17.4388 14.6474 17.4388 13.9999C17.4388 13.3524 17.9638 12.8274 18.6113 12.8274C19.2588 12.8274 19.7838 13.3524 19.7838 13.9999Z" fill="white"/>
</svg>